<mxfile host="app.diagrams.net" modified="2022-02-18T16:35:49.684Z" agent="5.0 (Windows NT 10.0; Win64; x64) AppleWebKit/537.36 (KHTML, like Gecko) Chrome/98.0.4758.102 Safari/537.36 Edg/98.0.1108.55" etag="lobeliPhLqeeCOXJAmKm" version="16.5.6" type="github">
  <diagram id="f_OamlXEMhh0Ig-cFjTD" name="Page-1">
    <mxGraphModel dx="4530" dy="1553" grid="0" gridSize="10" guides="1" tooltips="1" connect="1" arrows="1" fold="1" page="0" pageScale="1" pageWidth="850" pageHeight="1100" math="0" shadow="0">
      <root>
        <mxCell id="0" />
        <mxCell id="1" parent="0" />
        <mxCell id="QaYpBxPNPQrCtKfL7-Zh-1" value="&lt;font style=&quot;font-size: 30px&quot;&gt;Header&lt;/font&gt;" style="rounded=0;whiteSpace=wrap;html=1;hachureGap=4;" vertex="1" parent="1">
          <mxGeometry x="-188" y="41" width="761" height="72" as="geometry" />
        </mxCell>
        <mxCell id="QaYpBxPNPQrCtKfL7-Zh-2" value="&lt;font style=&quot;font-size: 30px&quot;&gt;Body&lt;/font&gt;" style="rounded=0;whiteSpace=wrap;html=1;hachureGap=4;" vertex="1" parent="1">
          <mxGeometry x="-188" y="127" width="761" height="722" as="geometry" />
        </mxCell>
        <mxCell id="QaYpBxPNPQrCtKfL7-Zh-3" value="Logo" style="ellipse;whiteSpace=wrap;html=1;hachureGap=4;fontSize=30;" vertex="1" parent="1">
          <mxGeometry x="-182" y="44" width="71" height="66" as="geometry" />
        </mxCell>
        <mxCell id="QaYpBxPNPQrCtKfL7-Zh-4" value="&lt;font style=&quot;font-size: 30px&quot;&gt;Footer&lt;/font&gt;" style="rounded=0;whiteSpace=wrap;html=1;hachureGap=4;" vertex="1" parent="1">
          <mxGeometry x="-193" y="855" width="761" height="72" as="geometry" />
        </mxCell>
        <mxCell id="QaYpBxPNPQrCtKfL7-Zh-9" value="&lt;font style=&quot;font-size: 15px&quot;&gt;Carousel&lt;/font&gt;" style="rounded=0;whiteSpace=wrap;html=1;hachureGap=4;fontSize=30;align=left;" vertex="1" parent="1">
          <mxGeometry x="-159" y="158" width="709" height="168" as="geometry" />
        </mxCell>
        <mxCell id="QaYpBxPNPQrCtKfL7-Zh-6" value="AdsCard&lt;br style=&quot;font-size: 29px&quot;&gt;&lt;ul style=&quot;font-size: 15px&quot;&gt;&lt;li&gt;&lt;font style=&quot;font-size: 15px&quot;&gt;Img&lt;/font&gt;&lt;/li&gt;&lt;li&gt;&lt;font style=&quot;font-size: 15px&quot;&gt;name&lt;/font&gt;&lt;/li&gt;&lt;/ul&gt;" style="rounded=0;whiteSpace=wrap;html=1;hachureGap=4;fontSize=30;align=left;" vertex="1" parent="1">
          <mxGeometry x="-159" y="356" width="709" height="168" as="geometry" />
        </mxCell>
        <mxCell id="QaYpBxPNPQrCtKfL7-Zh-13" value="&lt;font style=&quot;font-size: 30px&quot;&gt;Body&lt;/font&gt;" style="rounded=0;whiteSpace=wrap;html=1;hachureGap=4;" vertex="1" parent="1">
          <mxGeometry x="615" y="127" width="761" height="564" as="geometry" />
        </mxCell>
        <mxCell id="QaYpBxPNPQrCtKfL7-Zh-14" value="" style="rounded=0;whiteSpace=wrap;html=1;hachureGap=4;fontSize=15;" vertex="1" parent="1">
          <mxGeometry x="639" y="237" width="349" height="25" as="geometry" />
        </mxCell>
        <mxCell id="QaYpBxPNPQrCtKfL7-Zh-15" value="Full Name" style="text;strokeColor=none;fillColor=none;html=1;align=center;verticalAlign=middle;whiteSpace=wrap;rounded=0;hachureGap=4;fontSize=15;" vertex="1" parent="1">
          <mxGeometry x="639" y="204" width="95" height="30" as="geometry" />
        </mxCell>
        <mxCell id="QaYpBxPNPQrCtKfL7-Zh-16" value="" style="rounded=0;whiteSpace=wrap;html=1;hachureGap=4;fontSize=15;" vertex="1" parent="1">
          <mxGeometry x="639" y="311" width="349" height="25" as="geometry" />
        </mxCell>
        <mxCell id="QaYpBxPNPQrCtKfL7-Zh-17" value="Email" style="text;strokeColor=none;fillColor=none;html=1;align=center;verticalAlign=middle;whiteSpace=wrap;rounded=0;hachureGap=4;fontSize=15;" vertex="1" parent="1">
          <mxGeometry x="639" y="278" width="95" height="30" as="geometry" />
        </mxCell>
        <mxCell id="QaYpBxPNPQrCtKfL7-Zh-20" value="" style="rounded=0;whiteSpace=wrap;html=1;hachureGap=4;fontSize=15;" vertex="1" parent="1">
          <mxGeometry x="639" y="386" width="349" height="25" as="geometry" />
        </mxCell>
        <mxCell id="QaYpBxPNPQrCtKfL7-Zh-21" value="Password" style="text;strokeColor=none;fillColor=none;html=1;align=center;verticalAlign=middle;whiteSpace=wrap;rounded=0;hachureGap=4;fontSize=15;" vertex="1" parent="1">
          <mxGeometry x="639" y="353" width="95" height="30" as="geometry" />
        </mxCell>
        <mxCell id="QaYpBxPNPQrCtKfL7-Zh-26" value="" style="group" vertex="1" connectable="0" parent="1">
          <mxGeometry x="-94" y="182" width="665" height="120" as="geometry" />
        </mxCell>
        <mxCell id="QaYpBxPNPQrCtKfL7-Zh-5" value="PizzaCard&lt;br style=&quot;font-size: 29px&quot;&gt;&lt;ul style=&quot;font-size: 15px&quot;&gt;&lt;li&gt;&lt;font style=&quot;font-size: 15px&quot;&gt;Img&lt;/font&gt;&lt;/li&gt;&lt;li&gt;&lt;font style=&quot;font-size: 15px&quot;&gt;name&lt;/font&gt;&lt;/li&gt;&lt;/ul&gt;" style="rounded=0;whiteSpace=wrap;html=1;hachureGap=4;fontSize=30;align=left;" vertex="1" parent="QaYpBxPNPQrCtKfL7-Zh-26">
          <mxGeometry width="149" height="120" as="geometry" />
        </mxCell>
        <mxCell id="QaYpBxPNPQrCtKfL7-Zh-10" value="PizzaCard&lt;br style=&quot;font-size: 29px&quot;&gt;&lt;ul style=&quot;font-size: 15px&quot;&gt;&lt;li&gt;&lt;font style=&quot;font-size: 15px&quot;&gt;Img&lt;/font&gt;&lt;/li&gt;&lt;li&gt;&lt;font style=&quot;font-size: 15px&quot;&gt;name&lt;/font&gt;&lt;/li&gt;&lt;/ul&gt;" style="rounded=0;whiteSpace=wrap;html=1;hachureGap=4;fontSize=30;align=left;" vertex="1" parent="QaYpBxPNPQrCtKfL7-Zh-26">
          <mxGeometry x="173" width="149" height="120" as="geometry" />
        </mxCell>
        <mxCell id="QaYpBxPNPQrCtKfL7-Zh-11" value="PizzaCard&lt;br style=&quot;font-size: 29px&quot;&gt;&lt;ul style=&quot;font-size: 15px&quot;&gt;&lt;li&gt;&lt;font style=&quot;font-size: 15px&quot;&gt;Img&lt;/font&gt;&lt;/li&gt;&lt;li&gt;&lt;font style=&quot;font-size: 15px&quot;&gt;name&lt;/font&gt;&lt;/li&gt;&lt;/ul&gt;" style="rounded=0;whiteSpace=wrap;html=1;hachureGap=4;fontSize=30;align=left;" vertex="1" parent="QaYpBxPNPQrCtKfL7-Zh-26">
          <mxGeometry x="346" width="149" height="120" as="geometry" />
        </mxCell>
        <mxCell id="QaYpBxPNPQrCtKfL7-Zh-12" value="PizzaCard&lt;br style=&quot;font-size: 29px&quot;&gt;&lt;ul style=&quot;font-size: 15px&quot;&gt;&lt;li&gt;&lt;font style=&quot;font-size: 15px&quot;&gt;Img&lt;/font&gt;&lt;/li&gt;&lt;li&gt;&lt;font style=&quot;font-size: 15px&quot;&gt;name&lt;/font&gt;&lt;/li&gt;&lt;/ul&gt;" style="rounded=0;whiteSpace=wrap;html=1;hachureGap=4;fontSize=30;align=left;" vertex="1" parent="QaYpBxPNPQrCtKfL7-Zh-26">
          <mxGeometry x="516" width="149" height="120" as="geometry" />
        </mxCell>
        <mxCell id="QaYpBxPNPQrCtKfL7-Zh-28" value="Logo" style="ellipse;whiteSpace=wrap;html=1;hachureGap=4;fontSize=30;" vertex="1" parent="1">
          <mxGeometry x="-182" y="44" width="71" height="66" as="geometry" />
        </mxCell>
        <mxCell id="QaYpBxPNPQrCtKfL7-Zh-30" value="Full Name" style="text;strokeColor=none;fillColor=none;html=1;align=center;verticalAlign=middle;whiteSpace=wrap;rounded=0;hachureGap=4;fontSize=15;" vertex="1" parent="1">
          <mxGeometry x="639" y="204" width="95" height="30" as="geometry" />
        </mxCell>
        <mxCell id="QaYpBxPNPQrCtKfL7-Zh-32" value="" style="rounded=0;whiteSpace=wrap;html=1;hachureGap=4;fontSize=15;" vertex="1" parent="1">
          <mxGeometry x="639" y="386" width="349" height="25" as="geometry" />
        </mxCell>
        <mxCell id="QaYpBxPNPQrCtKfL7-Zh-33" value="Password" style="text;strokeColor=none;fillColor=none;html=1;align=center;verticalAlign=middle;whiteSpace=wrap;rounded=0;hachureGap=4;fontSize=15;" vertex="1" parent="1">
          <mxGeometry x="639" y="353" width="95" height="30" as="geometry" />
        </mxCell>
        <mxCell id="QaYpBxPNPQrCtKfL7-Zh-39" value="&lt;font style=&quot;font-size: 30px&quot;&gt;LogInHeader&lt;/font&gt;" style="rounded=0;whiteSpace=wrap;html=1;hachureGap=4;" vertex="1" parent="1">
          <mxGeometry x="-207" y="992" width="761" height="72" as="geometry" />
        </mxCell>
        <mxCell id="QaYpBxPNPQrCtKfL7-Zh-41" value="&lt;font style=&quot;font-size: 30px&quot;&gt;Footer&lt;/font&gt;" style="rounded=0;whiteSpace=wrap;html=1;hachureGap=4;" vertex="1" parent="1">
          <mxGeometry x="-207" y="1499" width="761" height="72" as="geometry" />
        </mxCell>
        <mxCell id="QaYpBxPNPQrCtKfL7-Zh-53" value="" style="group" vertex="1" connectable="0" parent="1">
          <mxGeometry x="628" y="870" width="761" height="579" as="geometry" />
        </mxCell>
        <mxCell id="QaYpBxPNPQrCtKfL7-Zh-50" value="&lt;span style=&quot;font-size: 30px&quot;&gt;CheckoutHeader&lt;/span&gt;" style="rounded=0;whiteSpace=wrap;html=1;hachureGap=4;" vertex="1" parent="QaYpBxPNPQrCtKfL7-Zh-53">
          <mxGeometry width="761" height="72" as="geometry" />
        </mxCell>
        <mxCell id="QaYpBxPNPQrCtKfL7-Zh-51" value="&lt;font style=&quot;font-size: 30px&quot;&gt;Body&lt;/font&gt;" style="rounded=0;whiteSpace=wrap;html=1;hachureGap=4;" vertex="1" parent="QaYpBxPNPQrCtKfL7-Zh-53">
          <mxGeometry y="86" width="761" height="413" as="geometry" />
        </mxCell>
        <mxCell id="QaYpBxPNPQrCtKfL7-Zh-52" value="&lt;font style=&quot;font-size: 30px&quot;&gt;Footer&lt;/font&gt;" style="rounded=0;whiteSpace=wrap;html=1;hachureGap=4;" vertex="1" parent="QaYpBxPNPQrCtKfL7-Zh-53">
          <mxGeometry y="507" width="761" height="72" as="geometry" />
        </mxCell>
        <mxCell id="QaYpBxPNPQrCtKfL7-Zh-56" value="CheckouttTitle" style="rounded=0;whiteSpace=wrap;html=1;hachureGap=4;fontSize=15;" vertex="1" parent="QaYpBxPNPQrCtKfL7-Zh-53">
          <mxGeometry x="103" y="105" width="574" height="55" as="geometry" />
        </mxCell>
        <mxCell id="QaYpBxPNPQrCtKfL7-Zh-78" value="" style="rounded=0;whiteSpace=wrap;html=1;hachureGap=4;fontSize=15;" vertex="1" parent="QaYpBxPNPQrCtKfL7-Zh-53">
          <mxGeometry x="115" y="210" width="541" height="278" as="geometry" />
        </mxCell>
        <mxCell id="QaYpBxPNPQrCtKfL7-Zh-87" value="" style="group" vertex="1" connectable="0" parent="QaYpBxPNPQrCtKfL7-Zh-53">
          <mxGeometry x="138" y="218" width="359" height="268" as="geometry" />
        </mxCell>
        <mxCell id="QaYpBxPNPQrCtKfL7-Zh-83" value="ORDER" style="text;strokeColor=none;fillColor=none;html=1;align=center;verticalAlign=middle;whiteSpace=wrap;rounded=0;hachureGap=4;fontSize=15;" vertex="1" parent="QaYpBxPNPQrCtKfL7-Zh-87">
          <mxGeometry x="15" width="95" height="30" as="geometry" />
        </mxCell>
        <mxCell id="QaYpBxPNPQrCtKfL7-Zh-85" value="LIST OF ITEMS" style="rounded=0;whiteSpace=wrap;html=1;hachureGap=4;fontSize=15;" vertex="1" parent="QaYpBxPNPQrCtKfL7-Zh-87">
          <mxGeometry y="37" width="359" height="185" as="geometry" />
        </mxCell>
        <mxCell id="QaYpBxPNPQrCtKfL7-Zh-86" value="SUBMIT" style="rounded=0;whiteSpace=wrap;html=1;hachureGap=4;fontSize=15;" vertex="1" parent="QaYpBxPNPQrCtKfL7-Zh-87">
          <mxGeometry x="110" y="226" width="72" height="42" as="geometry" />
        </mxCell>
        <mxCell id="QaYpBxPNPQrCtKfL7-Zh-55" value="" style="group" vertex="1" connectable="0" parent="1">
          <mxGeometry x="-207" y="1078" width="761" height="413" as="geometry" />
        </mxCell>
        <mxCell id="QaYpBxPNPQrCtKfL7-Zh-40" value="&lt;font style=&quot;font-size: 30px&quot;&gt;Body&lt;/font&gt;" style="rounded=0;whiteSpace=wrap;html=1;hachureGap=4;" vertex="1" parent="QaYpBxPNPQrCtKfL7-Zh-55">
          <mxGeometry width="761" height="413" as="geometry" />
        </mxCell>
        <mxCell id="QaYpBxPNPQrCtKfL7-Zh-42" value="" style="rounded=0;whiteSpace=wrap;html=1;hachureGap=4;fontSize=15;" vertex="1" parent="QaYpBxPNPQrCtKfL7-Zh-55">
          <mxGeometry x="28" y="100" width="349" height="25" as="geometry" />
        </mxCell>
        <mxCell id="QaYpBxPNPQrCtKfL7-Zh-43" value="Email" style="text;strokeColor=none;fillColor=none;html=1;align=center;verticalAlign=middle;whiteSpace=wrap;rounded=0;hachureGap=4;fontSize=15;" vertex="1" parent="QaYpBxPNPQrCtKfL7-Zh-55">
          <mxGeometry x="28" y="67" width="95" height="30" as="geometry" />
        </mxCell>
        <mxCell id="QaYpBxPNPQrCtKfL7-Zh-44" value="" style="rounded=0;whiteSpace=wrap;html=1;hachureGap=4;fontSize=15;" vertex="1" parent="QaYpBxPNPQrCtKfL7-Zh-55">
          <mxGeometry x="28" y="175" width="349" height="25" as="geometry" />
        </mxCell>
        <mxCell id="QaYpBxPNPQrCtKfL7-Zh-45" value="Password" style="text;strokeColor=none;fillColor=none;html=1;align=center;verticalAlign=middle;whiteSpace=wrap;rounded=0;hachureGap=4;fontSize=15;" vertex="1" parent="QaYpBxPNPQrCtKfL7-Zh-55">
          <mxGeometry x="28" y="142" width="95" height="30" as="geometry" />
        </mxCell>
        <mxCell id="QaYpBxPNPQrCtKfL7-Zh-54" value="Enter" style="rounded=0;whiteSpace=wrap;html=1;hachureGap=4;fontSize=15;" vertex="1" parent="QaYpBxPNPQrCtKfL7-Zh-55">
          <mxGeometry x="146" y="233" width="96" height="25" as="geometry" />
        </mxCell>
        <mxCell id="QaYpBxPNPQrCtKfL7-Zh-59" value="" style="group" vertex="1" connectable="0" parent="1">
          <mxGeometry x="631" y="426" width="357" height="222" as="geometry" />
        </mxCell>
        <mxCell id="QaYpBxPNPQrCtKfL7-Zh-18" value="" style="rounded=0;whiteSpace=wrap;html=1;hachureGap=4;fontSize=15;" vertex="1" parent="QaYpBxPNPQrCtKfL7-Zh-59">
          <mxGeometry x="8" y="33" width="349" height="25" as="geometry" />
        </mxCell>
        <mxCell id="QaYpBxPNPQrCtKfL7-Zh-19" value="Confirm Password" style="text;strokeColor=none;fillColor=none;html=1;align=center;verticalAlign=middle;whiteSpace=wrap;rounded=0;hachureGap=4;fontSize=15;" vertex="1" parent="QaYpBxPNPQrCtKfL7-Zh-59">
          <mxGeometry x="8" width="126" height="30" as="geometry" />
        </mxCell>
        <mxCell id="QaYpBxPNPQrCtKfL7-Zh-57" value="" style="group" vertex="1" connectable="0" parent="QaYpBxPNPQrCtKfL7-Zh-59">
          <mxGeometry y="82" width="354" height="140" as="geometry" />
        </mxCell>
        <mxCell id="QaYpBxPNPQrCtKfL7-Zh-34" value="Address" style="text;strokeColor=none;fillColor=none;html=1;align=center;verticalAlign=middle;whiteSpace=wrap;rounded=0;hachureGap=4;fontSize=15;" vertex="1" parent="QaYpBxPNPQrCtKfL7-Zh-57">
          <mxGeometry x="5" width="95" height="30" as="geometry" />
        </mxCell>
        <mxCell id="QaYpBxPNPQrCtKfL7-Zh-31" value="" style="rounded=0;whiteSpace=wrap;html=1;hachureGap=4;fontSize=15;" vertex="1" parent="QaYpBxPNPQrCtKfL7-Zh-57">
          <mxGeometry x="5" y="33" width="349" height="25" as="geometry" />
        </mxCell>
        <mxCell id="QaYpBxPNPQrCtKfL7-Zh-46" value="Contact N" style="text;strokeColor=none;fillColor=none;html=1;align=center;verticalAlign=middle;whiteSpace=wrap;rounded=0;hachureGap=4;fontSize=15;" vertex="1" parent="QaYpBxPNPQrCtKfL7-Zh-57">
          <mxGeometry y="82" width="95" height="30" as="geometry" />
        </mxCell>
        <mxCell id="QaYpBxPNPQrCtKfL7-Zh-47" value="" style="rounded=0;whiteSpace=wrap;html=1;hachureGap=4;fontSize=15;" vertex="1" parent="QaYpBxPNPQrCtKfL7-Zh-57">
          <mxGeometry y="115" width="349" height="25" as="geometry" />
        </mxCell>
        <mxCell id="QaYpBxPNPQrCtKfL7-Zh-60" value="&lt;font style=&quot;font-size: 30px&quot;&gt;Header&lt;/font&gt;" style="rounded=0;whiteSpace=wrap;html=1;hachureGap=4;" vertex="1" parent="1">
          <mxGeometry x="615" y="48" width="761" height="72" as="geometry" />
        </mxCell>
        <mxCell id="QaYpBxPNPQrCtKfL7-Zh-61" value="&lt;font style=&quot;font-size: 30px&quot;&gt;Footer&lt;/font&gt;" style="rounded=0;whiteSpace=wrap;html=1;hachureGap=4;" vertex="1" parent="1">
          <mxGeometry x="610" y="695" width="761" height="72" as="geometry" />
        </mxCell>
        <mxCell id="QaYpBxPNPQrCtKfL7-Zh-81" value="About us" style="text;strokeColor=none;fillColor=none;html=1;align=center;verticalAlign=middle;whiteSpace=wrap;rounded=0;hachureGap=4;fontSize=15;" vertex="1" parent="1">
          <mxGeometry x="-171" y="876" width="95" height="30" as="geometry" />
        </mxCell>
        <mxCell id="QaYpBxPNPQrCtKfL7-Zh-82" value="Support" style="text;strokeColor=none;fillColor=none;html=1;align=center;verticalAlign=middle;whiteSpace=wrap;rounded=0;hachureGap=4;fontSize=15;" vertex="1" parent="1">
          <mxGeometry x="381" y="876" width="95" height="30" as="geometry" />
        </mxCell>
        <mxCell id="QaYpBxPNPQrCtKfL7-Zh-88" value="&lt;font style=&quot;font-size: 30px&quot;&gt;MENUHeader&lt;/font&gt;" style="rounded=0;whiteSpace=wrap;html=1;hachureGap=4;" vertex="1" parent="1">
          <mxGeometry x="-976" y="45" width="761" height="72" as="geometry" />
        </mxCell>
        <mxCell id="QaYpBxPNPQrCtKfL7-Zh-89" value="&lt;font style=&quot;font-size: 30px&quot;&gt;Body&lt;/font&gt;" style="rounded=0;whiteSpace=wrap;html=1;hachureGap=4;" vertex="1" parent="1">
          <mxGeometry x="-976" y="131" width="761" height="722" as="geometry" />
        </mxCell>
        <mxCell id="QaYpBxPNPQrCtKfL7-Zh-90" value="&lt;font style=&quot;font-size: 30px&quot;&gt;Footer&lt;/font&gt;" style="rounded=0;whiteSpace=wrap;html=1;hachureGap=4;" vertex="1" parent="1">
          <mxGeometry x="-981" y="859" width="761" height="72" as="geometry" />
        </mxCell>
        <mxCell id="QaYpBxPNPQrCtKfL7-Zh-91" value="&lt;span style=&quot;white-space: pre&quot;&gt;	&lt;/span&gt;MENU" style="rounded=0;whiteSpace=wrap;html=1;hachureGap=4;fontSize=30;align=left;" vertex="1" parent="1">
          <mxGeometry x="-939" y="150" width="709" height="111" as="geometry" />
        </mxCell>
        <mxCell id="QaYpBxPNPQrCtKfL7-Zh-92" value="" style="group" vertex="1" connectable="0" parent="1">
          <mxGeometry x="-916" y="309" width="665" height="178" as="geometry" />
        </mxCell>
        <mxCell id="QaYpBxPNPQrCtKfL7-Zh-93" value="PizzaCard&lt;br style=&quot;font-size: 29px&quot;&gt;&lt;ul style=&quot;font-size: 15px&quot;&gt;&lt;li&gt;PIZZA DETAILS&lt;/li&gt;&lt;li&gt;&lt;font style=&quot;font-size: 15px&quot;&gt;name&lt;/font&gt;&lt;/li&gt;&lt;/ul&gt;" style="rounded=0;whiteSpace=wrap;html=1;hachureGap=4;fontSize=30;align=left;" vertex="1" parent="QaYpBxPNPQrCtKfL7-Zh-92">
          <mxGeometry width="149" height="178" as="geometry" />
        </mxCell>
        <mxCell id="QaYpBxPNPQrCtKfL7-Zh-94" value="PizzaCard&lt;br style=&quot;font-size: 29px&quot;&gt;&lt;ul style=&quot;font-size: 15px&quot;&gt;&lt;li&gt;&lt;font style=&quot;font-size: 15px&quot;&gt;Img&lt;/font&gt;&lt;/li&gt;&lt;li&gt;&lt;font style=&quot;font-size: 15px&quot;&gt;name&lt;/font&gt;&lt;/li&gt;&lt;/ul&gt;" style="rounded=0;whiteSpace=wrap;html=1;hachureGap=4;fontSize=30;align=left;" vertex="1" parent="QaYpBxPNPQrCtKfL7-Zh-92">
          <mxGeometry x="173" width="149" height="178" as="geometry" />
        </mxCell>
        <mxCell id="QaYpBxPNPQrCtKfL7-Zh-95" value="PizzaCard&lt;br style=&quot;font-size: 29px&quot;&gt;&lt;ul style=&quot;font-size: 15px&quot;&gt;&lt;li&gt;&lt;font style=&quot;font-size: 15px&quot;&gt;Img&lt;/font&gt;&lt;/li&gt;&lt;li&gt;&lt;font style=&quot;font-size: 15px&quot;&gt;name&lt;/font&gt;&lt;/li&gt;&lt;/ul&gt;" style="rounded=0;whiteSpace=wrap;html=1;hachureGap=4;fontSize=30;align=left;" vertex="1" parent="QaYpBxPNPQrCtKfL7-Zh-92">
          <mxGeometry x="346" width="149" height="178" as="geometry" />
        </mxCell>
        <mxCell id="QaYpBxPNPQrCtKfL7-Zh-96" value="PizzaCard&lt;br style=&quot;font-size: 29px&quot;&gt;&lt;ul style=&quot;font-size: 15px&quot;&gt;&lt;li&gt;&lt;font style=&quot;font-size: 15px&quot;&gt;Img&lt;/font&gt;&lt;/li&gt;&lt;li&gt;&lt;font style=&quot;font-size: 15px&quot;&gt;name&lt;/font&gt;&lt;/li&gt;&lt;/ul&gt;" style="rounded=0;whiteSpace=wrap;html=1;hachureGap=4;fontSize=30;align=left;" vertex="1" parent="QaYpBxPNPQrCtKfL7-Zh-92">
          <mxGeometry x="516" width="149" height="178" as="geometry" />
        </mxCell>
        <mxCell id="QaYpBxPNPQrCtKfL7-Zh-98" value="" style="group" vertex="1" connectable="0" parent="1">
          <mxGeometry x="-911" y="537" width="665" height="178" as="geometry" />
        </mxCell>
        <mxCell id="QaYpBxPNPQrCtKfL7-Zh-99" value="PizzaCard&lt;br style=&quot;font-size: 29px&quot;&gt;&lt;ul style=&quot;font-size: 15px&quot;&gt;&lt;li&gt;PIZZA DETAILS&lt;/li&gt;&lt;li&gt;&lt;font style=&quot;font-size: 15px&quot;&gt;name&lt;/font&gt;&lt;/li&gt;&lt;/ul&gt;" style="rounded=0;whiteSpace=wrap;html=1;hachureGap=4;fontSize=30;align=left;" vertex="1" parent="QaYpBxPNPQrCtKfL7-Zh-98">
          <mxGeometry width="149" height="178" as="geometry" />
        </mxCell>
        <mxCell id="QaYpBxPNPQrCtKfL7-Zh-100" value="PizzaCard&lt;br style=&quot;font-size: 29px&quot;&gt;&lt;ul style=&quot;font-size: 15px&quot;&gt;&lt;li&gt;&lt;font style=&quot;font-size: 15px&quot;&gt;Img&lt;/font&gt;&lt;/li&gt;&lt;li&gt;&lt;font style=&quot;font-size: 15px&quot;&gt;name&lt;/font&gt;&lt;/li&gt;&lt;/ul&gt;" style="rounded=0;whiteSpace=wrap;html=1;hachureGap=4;fontSize=30;align=left;" vertex="1" parent="QaYpBxPNPQrCtKfL7-Zh-98">
          <mxGeometry x="173" width="149" height="178" as="geometry" />
        </mxCell>
        <mxCell id="QaYpBxPNPQrCtKfL7-Zh-101" value="PizzaCard&lt;br style=&quot;font-size: 29px&quot;&gt;&lt;ul style=&quot;font-size: 15px&quot;&gt;&lt;li&gt;&lt;font style=&quot;font-size: 15px&quot;&gt;Img&lt;/font&gt;&lt;/li&gt;&lt;li&gt;&lt;font style=&quot;font-size: 15px&quot;&gt;name&lt;/font&gt;&lt;/li&gt;&lt;/ul&gt;" style="rounded=0;whiteSpace=wrap;html=1;hachureGap=4;fontSize=30;align=left;" vertex="1" parent="QaYpBxPNPQrCtKfL7-Zh-98">
          <mxGeometry x="346" width="149" height="178" as="geometry" />
        </mxCell>
        <mxCell id="QaYpBxPNPQrCtKfL7-Zh-102" value="PizzaCard&lt;br style=&quot;font-size: 29px&quot;&gt;&lt;ul style=&quot;font-size: 15px&quot;&gt;&lt;li&gt;&lt;font style=&quot;font-size: 15px&quot;&gt;Img&lt;/font&gt;&lt;/li&gt;&lt;li&gt;&lt;font style=&quot;font-size: 15px&quot;&gt;name&lt;/font&gt;&lt;/li&gt;&lt;/ul&gt;" style="rounded=0;whiteSpace=wrap;html=1;hachureGap=4;fontSize=30;align=left;" vertex="1" parent="QaYpBxPNPQrCtKfL7-Zh-98">
          <mxGeometry x="516" width="149" height="178" as="geometry" />
        </mxCell>
        <mxCell id="QaYpBxPNPQrCtKfL7-Zh-103" value="" style="edgeStyle=orthogonalEdgeStyle;orthogonalLoop=1;jettySize=auto;html=1;rounded=1;sketch=0;fontColor=#1A1A1A;endArrow=open;startSize=14;endSize=14;sourcePerimeterSpacing=8;targetPerimeterSpacing=8;strokeColor=#182E3E;entryX=0;entryY=0.75;entryDx=0;entryDy=0;" edge="1" parent="1" source="QaYpBxPNPQrCtKfL7-Zh-91" target="QaYpBxPNPQrCtKfL7-Zh-5">
          <mxGeometry width="120" relative="1" as="geometry">
            <mxPoint x="-152" y="418" as="sourcePoint" />
            <mxPoint x="652" y="-27" as="targetPoint" />
          </mxGeometry>
        </mxCell>
        <mxCell id="QaYpBxPNPQrCtKfL7-Zh-105" style="edgeStyle=orthogonalEdgeStyle;rounded=1;sketch=0;orthogonalLoop=1;jettySize=auto;html=1;entryX=0.5;entryY=0;entryDx=0;entryDy=0;fontColor=#1A1A1A;endArrow=open;startSize=14;endSize=14;sourcePerimeterSpacing=8;targetPerimeterSpacing=8;strokeColor=#182E3E;" edge="1" parent="1" source="QaYpBxPNPQrCtKfL7-Zh-104" target="QaYpBxPNPQrCtKfL7-Zh-39">
          <mxGeometry relative="1" as="geometry">
            <Array as="points">
              <mxPoint x="600" y="671" />
              <mxPoint x="600" y="967" />
              <mxPoint x="174" y="967" />
            </Array>
          </mxGeometry>
        </mxCell>
        <mxCell id="QaYpBxPNPQrCtKfL7-Zh-104" value="SUBMIT" style="rounded=0;whiteSpace=wrap;html=1;hachureGap=4;fontSize=15;" vertex="1" parent="1">
          <mxGeometry x="694" y="659" width="164" height="25" as="geometry" />
        </mxCell>
        <mxCell id="QaYpBxPNPQrCtKfL7-Zh-106" style="edgeStyle=orthogonalEdgeStyle;rounded=1;sketch=0;orthogonalLoop=1;jettySize=auto;html=1;entryX=0.5;entryY=1;entryDx=0;entryDy=0;fontColor=#1A1A1A;endArrow=open;startSize=14;endSize=14;sourcePerimeterSpacing=8;targetPerimeterSpacing=8;strokeColor=#182E3E;exitX=0.5;exitY=1;exitDx=0;exitDy=0;" edge="1" parent="1" source="QaYpBxPNPQrCtKfL7-Zh-109" target="QaYpBxPNPQrCtKfL7-Zh-52">
          <mxGeometry relative="1" as="geometry">
            <Array as="points">
              <mxPoint x="-890" y="794" />
              <mxPoint x="-890" y="1637" />
              <mxPoint x="1009" y="1637" />
            </Array>
          </mxGeometry>
        </mxCell>
        <mxCell id="QaYpBxPNPQrCtKfL7-Zh-107" style="edgeStyle=orthogonalEdgeStyle;rounded=1;sketch=0;orthogonalLoop=1;jettySize=auto;html=1;fontColor=#1A1A1A;endArrow=open;startSize=14;endSize=14;sourcePerimeterSpacing=8;targetPerimeterSpacing=8;strokeColor=#182E3E;" edge="1" parent="1" source="QaYpBxPNPQrCtKfL7-Zh-54" target="QaYpBxPNPQrCtKfL7-Zh-2">
          <mxGeometry relative="1" as="geometry">
            <Array as="points">
              <mxPoint x="-555" y="1323" />
              <mxPoint x="-555" y="950" />
              <mxPoint x="193" y="950" />
            </Array>
          </mxGeometry>
        </mxCell>
        <mxCell id="QaYpBxPNPQrCtKfL7-Zh-109" value="CHECKOUT" style="rounded=0;whiteSpace=wrap;html=1;hachureGap=4;fontSize=15;" vertex="1" parent="1">
          <mxGeometry x="-911" y="769" width="164" height="25" as="geometry" />
        </mxCell>
      </root>
    </mxGraphModel>
  </diagram>
</mxfile>
